<?xml version="1.0" encoding="UTF-8" standalone="no"?>
<!-- Generator: Adobe Illustrator 22.1.0, SVG Export Plug-In . SVG Version: 6.00 Build 0)  -->

<svg
   xmlns:dc="http://purl.org/dc/elements/1.1/"
   xmlns:cc="http://creativecommons.org/ns#"
   xmlns:rdf="http://www.w3.org/1999/02/22-rdf-syntax-ns#"
   xmlns:svg="http://www.w3.org/2000/svg"
   xmlns="http://www.w3.org/2000/svg"
   xmlns:xlink="http://www.w3.org/1999/xlink"
   xmlns:sodipodi="http://sodipodi.sourceforge.net/DTD/sodipodi-0.dtd"
   xmlns:inkscape="http://www.inkscape.org/namespaces/inkscape"
   version="1.1"
   id="Ebene_1"
   x="0px"
   y="0px"
   viewBox="0 0 117.9 123.2"
   xml:space="preserve"
   inkscape:version="0.91 r13725"
   sodipodi:docname="MiroLogo_neg_icon-1.svg"
   width="117.9"
   height="123.2"><metadata
     id="metadata87"><rdf:RDF><cc:Work
         rdf:about=""><dc:format>image/svg+xml</dc:format><dc:type
           rdf:resource="http://purl.org/dc/dcmitype/StillImage" /><dc:title></dc:title></cc:Work></rdf:RDF></metadata><defs
     id="defs85" /><sodipodi:namedview
     pagecolor="#ffffff"
     bordercolor="#666666"
     borderopacity="1"
     objecttolerance="10"
     gridtolerance="10"
     guidetolerance="10"
     inkscape:pageopacity="0"
     inkscape:pageshadow="2"
     inkscape:window-width="1366"
     inkscape:window-height="705"
     id="namedview83"
     showgrid="false"
     fit-margin-top="0"
     fit-margin-left="0"
     fit-margin-right="0"
     fit-margin-bottom="0"
     inkscape:zoom="0.87125749"
     inkscape:cx="157.3"
     inkscape:cy="61.700003"
     inkscape:window-x="-8"
     inkscape:window-y="-8"
     inkscape:window-maximized="1"
     inkscape:current-layer="Ebene_1" /><style
     type="text/css"
     id="style3">
	.st0{fill:#1661A7;}
	.st1{fill:#0AADF0;}
	.st2{clip-path:url(#SVGID_2_);fill:#0AADF0;}
	.st3{clip-path:url(#SVGID_4_);fill:#1661A7;}
	.st4{fill:#92DDF9;}
	.st5{clip-path:url(#SVGID_6_);fill:#92DDF9;}
	.st6{display:none;}
	.st7{display:inline;}
	.st8{clip-path:url(#SVGID_8_);fill:#DDDDDD;}
	.st9{display:none;fill:#DDDDDD;}
</style><polyline
     class="st0"
     points="33.3,37.4 92.2,81.4 104,72.6 45,28.6 33.3,37.4 "
     id="polyline5"
     style="fill:#1661a7"
     transform="translate(-9.7,-11)" /><polyline
     class="st1"
     points="33.3,55 92.2,99 104,90.2 45,46.2 33.3,55 "
     id="polyline7"
     style="fill:#0aadf0"
     transform="translate(-9.7,-11)" /><polyline
     class="st0"
     points="21.5,46.2 80.4,90.2 68.6,99 9.7,55 21.5,46.2 "
     id="polyline9"
     style="fill:#1661a7"
     transform="translate(-9.7,-11)" /><g
     id="g11"
     transform="translate(-9.7,-11)"><g
       id="g13"><g
         id="g15"><defs
           id="defs17"><rect
             id="SVGID_1_"
             x="-105"
             y="11"
             width="351.79999"
             height="185.89999" /></defs><clipPath
           id="SVGID_2_"><use
             xlink:href="#SVGID_1_"
             style="overflow:visible"
             id="use21"
             x="0"
             y="0"
             width="100%"
             height="100%" /></clipPath><polyline
           class="st2"
           points="21.5,63.8 80.4,107.8 68.6,116.6 9.7,72.6 21.5,63.8    "
           id="polyline23"
           clip-path="url(#SVGID_2_)"
           style="fill:#0aadf0" /></g></g><g
       id="g25"><g
         id="g27"><defs
           id="defs29"><rect
             id="SVGID_3_"
             x="-105"
             y="11"
             width="351.79999"
             height="185.89999" /></defs><clipPath
           id="SVGID_4_"><use
             xlink:href="#SVGID_3_"
             style="overflow:visible"
             id="use33"
             x="0"
             y="0"
             width="100%"
             height="100%" /></clipPath><polyline
           class="st3"
           points="56.8,19.8 115.8,63.8 127.6,55 68.6,11 56.8,19.8    "
           id="polyline35"
           clip-path="url(#SVGID_4_)"
           style="fill:#1661a7" /></g></g></g><polyline
     class="st4"
     points="21.5,81.4 80.4,125.4 68.6,134.2 9.7,90.2 21.5,81.4 "
     id="polyline37"
     style="fill:#92ddf9"
     transform="translate(-9.7,-11)" /><polyline
     class="st1"
     points="56.8,37.4 115.8,81.4 127.6,72.6 68.6,28.6 56.8,37.4 "
     id="polyline39"
     style="fill:#0aadf0"
     transform="translate(-9.7,-11)" /><polyline
     class="st4"
     points="104,107.8 92.2,116.6 68.6,99 80.4,90.2 104,107.8 "
     id="polyline41"
     style="fill:#92ddf9"
     transform="translate(-9.7,-11)" /><g
     id="g43"
     transform="translate(-9.7,-11)"><g
       id="g45"><g
         id="g47"><defs
           id="defs49"><rect
             id="SVGID_5_"
             x="-105"
             y="11"
             width="351.79999"
             height="185.89999" /></defs><clipPath
           id="SVGID_6_"><use
             xlink:href="#SVGID_5_"
             style="overflow:visible"
             id="use53"
             x="0"
             y="0"
             width="100%"
             height="100%" /></clipPath><polyline
           class="st5"
           points="92.2,81.4 104,72.6 127.6,90.2 115.8,99 92.2,81.4    "
           id="polyline55"
           clip-path="url(#SVGID_6_)"
           style="fill:#92ddf9" /></g></g><g
       class="st6"
       id="g57"
       style="display:none"><g
         class="st7"
         id="g59"
         style="display:inline"><defs
           id="defs61"><rect
             id="SVGID_7_"
             x="-105"
             y="11"
             width="351.79999"
             height="185.89999" /></defs><clipPath
           id="SVGID_8_"><use
             xlink:href="#SVGID_7_"
             style="overflow:visible"
             id="use65"
             x="0"
             y="0"
             width="100%"
             height="100%" /></clipPath><path
           class="st8"
           d="m -49,148.8 c -3.4,-2.8 -7.4,-4.1 -12.1,-4.1 -5.5,0 -9.9,1.7 -13.2,5.1 -3.3,-3.4 -7.8,-5.1 -13.2,-5.1 -4.7,0 -8.8,1.4 -12.1,4.1 -3.5,2.8 -5.2,6.3 -5.2,10.4 l 0,35.7 c 0,0.6 0.3,1.2 4.1,1.2 3.8,0 4.1,-0.6 4.1,-1.2 l 0,-35.7 c 0,-1.9 0.8,-3.6 2.5,-4.9 1.8,-1.5 4,-2.2 6.7,-2.2 2.6,0 4.7,0.7 6.5,2.2 1.7,1.4 2.5,3 2.5,4.9 l 0,35.7 c 0,1 1.4,1.5 4.2,1.5 4,0 4,-1.1 4,-1.5 l 0,-35.7 c 0,-1.9 0.8,-3.6 2.5,-4.9 1.8,-1.5 4,-2.2 6.6,-2.2 2.6,0 4.8,0.7 6.6,2.2 1.7,1.4 2.5,3 2.5,4.9 l 0,35.7 c 0,0.6 0.3,1.2 4.1,1.2 0.9,0 1.8,0 2.4,-0.1 0.6,-0.1 1.7,-0.2 1.7,-1.1 l 0,-35.7 c 0,-4 -1.7,-7.5 -5.2,-10.4"
           id="path67"
           clip-path="url(#SVGID_8_)"
           inkscape:connector-curvature="0"
           style="fill:#dddddd" /></g></g></g><path
     class="st9"
     d="m -35.3,134.3 c -3.8,0 -4.1,0.9 -4.1,1.5 l 0,48.1 c 0,0.6 0.3,1.5 4.1,1.5 3.8,0 4.1,-0.9 4.1,-1.5 l 0,-48.1 c 0,-0.6 -0.3,-1.5 -4.1,-1.5"
     id="path69"
     inkscape:connector-curvature="0"
     style="display:none;fill:#dddddd" /><path
     class="st9"
     d="m 6.9,135 -1.4,-0.4 c -1.2,-0.3 -3.2,-0.8 -6,-0.8 -3.1,0 -5.6,0.6 -7.8,1.8 -6.4,3.5 -9.7,8.6 -9.7,15.2 l 0,33.1 c 0,1.1 1.2,1.6 3.7,1.6 1.4,0 4.5,-0.2 4.5,-1.6 l 0,-33.1 c 0,-4.1 1.9,-7.1 5.7,-9 0.6,-0.3 2,-0.6 3.7,-0.6 1.1,0 2.2,0.2 3.2,0.4 1,0.3 2.1,0.6 2.3,0.6 0.2,0.1 0.4,0.1 0.6,0.1 1.5,0 2.9,-2 3.5,-2.8 1.1,-1.7 0.9,-2.2 0.8,-2.4 -0.4,-1 -1.9,-1.7 -3.1,-2.1"
     id="path71"
     inkscape:connector-curvature="0"
     style="display:none;fill:#dddddd" /><path
     class="st9"
     d="m 23.8,143.6 c 2.3,-1.9 5.1,-2.8 8.4,-2.8 l 0.4,0 c 3.3,0 6.1,0.9 8.4,2.8 2.2,1.8 3.3,3.9 3.3,6.4 l 0,19.3 c 0,2.5 -1.1,4.6 -3.3,6.4 -2.3,1.9 -5.1,2.8 -8.4,2.8 l -0.4,0 c -3.3,0 -6.1,-0.9 -8.4,-2.8 -2.2,-1.8 -3.3,-3.9 -3.3,-6.4 l 0,-19.3 c 0,-2.5 1.1,-4.6 3.3,-6.4 l 0,0 z m 22.7,-5.5 C 42.6,135 38,133.4 32.6,133.4 l -0.4,0 c -5.4,0 -10.1,1.6 -13.9,4.7 -4,3.2 -6,7.2 -6,11.8 l 0,19.3 c 0,4.6 2,8.6 6,11.8 3.8,3.1 8.5,4.7 13.9,4.7 l 0.4,0 c 5.4,0 10,-1.6 13.9,-4.7 4,-3.2 6,-7.2 6,-11.8 l 0,-19.2 c 0,-4.6 -2,-8.6 -6,-11.9"
     id="path73"
     inkscape:connector-curvature="0"
     style="display:none;fill:#dddddd" /><path
     class="st9"
     d="m 118.2,137.8 c -3.4,-2.8 -7.4,-4.1 -12.1,-4.1 -5.5,0 -9.9,1.7 -13.3,5.1 -3.3,-3.4 -7.8,-5.1 -13.3,-5.1 -4.7,0 -8.8,1.4 -12.1,4.1 -3.5,2.8 -5.2,6.3 -5.2,10.4 l 0,35.7 c 0,0.6 0.3,1.2 4.1,1.2 3.8,0 4.1,-0.6 4.1,-1.2 l 0,-35.7 c 0,-1.9 0.8,-3.6 2.5,-4.9 1.8,-1.5 4,-2.2 6.7,-2.2 2.6,0 4.7,0.7 6.5,2.2 1.7,1.4 2.5,3 2.5,4.9 l 0,35.7 c 0,0.3 0,1.4 4.2,1.4 4,0 4,-1 4,-1.4 l 0,-35.7 c 0,-1.9 0.8,-3.6 2.5,-4.9 1.8,-1.5 4,-2.2 6.6,-2.2 2.6,0 4.8,0.7 6.6,2.2 1.7,1.4 2.5,3 2.5,4.9 l 0,35.7 c 0,0.6 0.3,1.2 4.1,1.2 0.9,0 1.8,0 2.4,-0.1 0.6,-0.1 1.7,-0.2 1.7,-1.1 l 0,-35.7 c 0.2,-4 -1.5,-7.5 -5,-10.4"
     id="path75"
     inkscape:connector-curvature="0"
     style="display:none;fill:#dddddd" /><path
     class="st9"
     d="m 140.2,134.3 c -3.8,0 -4.1,0.9 -4.1,1.5 l 0,48.1 c 0,0.6 0.3,1.5 4.1,1.5 3.8,0 4.1,-0.9 4.1,-1.5 l 0,-48.1 c 0,-0.6 -0.3,-1.5 -4.1,-1.5"
     id="path77"
     inkscape:connector-curvature="0"
     style="display:none;fill:#dddddd" /><path
     class="st9"
     d="m 167.6,143.6 c 2.3,-1.9 5.1,-2.8 8.4,-2.8 l 0.4,0 c 5.2,0 8,2.4 8.3,2.6 0.3,0.3 0.7,0.4 1.2,0.4 0.9,0 1.9,-0.5 3,-1.4 1.3,-1.2 2,-2.2 2,-3 0,-0.4 -0.1,-0.8 -0.4,-1.1 -0.2,-0.2 -4.7,-4.9 -14.2,-4.9 l -0.4,0 c -5.4,0 -10.1,1.6 -13.9,4.7 -4,3.2 -6,7.2 -6,11.8 l 0,19.4 c 0,4.6 2,8.6 6,11.8 3.9,3.1 8.5,4.7 13.9,4.7 l 0.4,0 c 9.5,0 14,-4.7 14.2,-4.9 0.3,-0.3 0.4,-0.7 0.4,-1.1 0,-0.9 -0.7,-1.9 -2,-3 -1.1,-1 -2.1,-1.4 -3,-1.4 -0.5,0 -0.9,0.1 -1.2,0.4 -0.3,0.3 -3.1,2.6 -8.3,2.6 l -0.4,0 c -3.3,0 -6.1,-0.9 -8.4,-2.8 -2.2,-1.8 -3.3,-3.9 -3.3,-6.4 l 0,-19.2 c 0,-2.5 1.1,-4.6 3.3,-6.4"
     id="path79"
     inkscape:connector-curvature="0"
     style="display:none;fill:#dddddd" /><path
     class="st9"
     d="m 208.4,143.6 c 2.3,-1.9 5.1,-2.8 8.4,-2.8 l 0.4,0 c 3.3,0 6.1,0.9 8.4,2.8 2.2,1.8 3.3,3.9 3.3,6.4 l 0,19.3 c 0,2.5 -1.1,4.6 -3.3,6.4 -2.3,1.9 -5.1,2.8 -8.4,2.8 l -0.4,0 c -3.3,0 -6.1,-0.9 -8.4,-2.8 -2.2,-1.8 -3.3,-3.9 -3.3,-6.4 l 0,-19.3 c 0,-2.6 1.1,-4.6 3.3,-6.4 l 0,0 z m 22.7,-5.5 c -3.9,-3.1 -8.5,-4.7 -13.9,-4.7 l -0.4,0 c -5.4,0 -10.1,1.6 -13.9,4.7 -4,3.2 -6,7.2 -6,11.8 l 0,19.3 c 0,4.6 2,8.6 6,11.8 3.9,3.1 8.5,4.7 13.9,4.7 l 0.4,0 c 5.4,0 10,-1.6 13.9,-4.7 4,-3.2 6,-7.2 6,-11.8 l 0,-19.2 c 0,-4.6 -2,-8.6 -6,-11.9"
     id="path81"
     inkscape:connector-curvature="0"
     style="display:none;fill:#dddddd" /></svg>